# xmcd
#
# Track frame offsets:
#	150
#	11220
#	24135
#	33908
#	42338
#	53888
#	63683
#	78863
#	90623
#	102016
#	112156
#	121846
#
# Disc length: 1794 seconds
#
# Revision: 1
# Processed by: cddbd v1.5.2PL0 Copyright (c) Steve Scherf et al.
# Submitted via: audiograbber 1.83.01
#
DISCID=9107000c
DTITLE=Hank Thompson - Salutes Oklahoma
DYEAR=1969
DGENRE=Country
TTITLE0=Oklahoma Hills
TTITLE1=Dusty Skies
TTITLE2=Dear Okie
TTITLE3=Oklahoma Home Brew
TTITLE4=The Everlasting Hills Of Oklahoma
TTITLE5=Take Me Back To Tulsa
TTITLE6=Guthrie
TTITLE7=Happy, Oklahoma
TTITLE8=O-K-L-A-H-O-M-A
TTITLE9=Homesick, Lonesome, Hillbilly Okie
TTITLE10=Big Boat Across Oklahoma
TTITLE11=Oklahoma Stomp
EXTD=
EXTT0=
EXTT1=
EXTT2=
EXTT3=
EXTT4=
EXTT5=
EXTT6=
EXTT7=
EXTT8=
EXTT9=
EXTT10=
EXTT11=
PLAYORDER=
